<svg width="553" height="206" viewBox="0 0 553 206" fill="none" xmlns="http://www.w3.org/2000/svg">
<g clip-path="url(#clip0_1_2)">
<path d="M285.4 68L311.7 66.3C312.3 70.6 313.4 73.8 315.2 76.1C318.1 79.7 322.1 81.5 327.4 81.5C331.3 81.5 334.4 80.6 336.5 78.7C338.5 77.2 339.7 74.8 339.7 72.3C339.7 69.9 338.6 67.6 336.7 66.1C334.7 64.3 330 62.5 322.6 60.9C310.5 58.2 301.8 54.6 296.7 50C291.6 45.7 288.7 39.4 288.9 32.7C288.9 28.1 290.3 23.5 292.9 19.7C295.9 15.4 300 12 304.9 10.1C310.2 7.80001 317.6 6.60001 326.9 6.60001C338.3 6.60001 347 8.70001 353 13C359 17.2 362.6 24 363.7 33.3L337.7 34.8C337 30.8 335.6 27.9 333.3 26C331 24.1 328 23.2 324.1 23.2C320.9 23.2 318.5 23.9 316.9 25.2C315.4 26.4 314.4 28.2 314.5 30.2C314.5 31.7 315.3 33.1 316.5 34C317.8 35.2 320.9 36.3 325.8 37.3C337.9 39.9 346.5 42.5 351.8 45.2C357.1 47.9 360.9 51.2 363.2 55.1C365.6 59.1 366.8 63.7 366.7 68.4C366.7 74 365.1 79.6 361.9 84.3C358.6 89.2 354 93 348.6 95.3C342.9 97.8 335.7 99.1 327.1 99.1C311.9 99.1 301.4 96.2 295.5 90.3C289.6 84.4 286.1 77 285.4 68ZM6.3 97.6V8.20001H52.4C60.9 8.20001 67.5 8.90001 72 10.4C76.4 11.8 80.3 14.7 82.9 18.6C85.8 22.9 87.2 27.9 87.1 33.1C87.4 41.9 82.9 50.3 75.2 54.7C72.2 56.4 68.9 57.6 65.5 58.2C68 58.9 70.5 60.1 72.7 61.5C74.4 62.9 75.8 64.5 77.1 66.2C78.6 67.9 79.9 69.8 81 71.8L94.4 97.7H63L48.2 70.2C46.3 66.7 44.7 64.4 43.2 63.3C41.2 61.9 38.8 61.2 36.4 61.2H34V97.5H6.3V97.6ZM34 44.4H45.7C48.2 44.2 50.6 43.8 53 43.2C54.8 42.9 56.4 41.9 57.5 40.4C60.2 36.8 59.8 31.7 56.5 28.6C54.7 27.1 51.2 26.3 46.2 26.3H34V44.4ZM0 174.2L26.3 172.5C26.9 176.8 28 180 29.8 182.3C32.6 185.9 36.7 187.8 42 187.8C45.9 187.8 49 186.9 51.1 185C53.1 183.4 54.3 181.1 54.3 178.6C54.3 176.2 53.2 173.9 51.3 172.4C49.3 170.6 44.6 168.8 37.1 167.2C25 164.5 16.3 160.9 11.2 156.3C6.1 152 3.2 145.7 3.4 139C3.4 134.4 4.8 129.8 7.4 126C10.4 121.7 14.5 118.3 19.4 116.4C24.7 114.1 32.1 112.9 41.4 112.9C52.8 112.9 61.5 115 67.5 119.3C73.5 123.6 77 130.3 78.1 139.6L52.1 141.1C51.4 137.1 50 134.2 47.7 132.3C45.5 130.4 42.4 129.5 38.5 129.6C35.3 129.6 32.9 130.3 31.3 131.7C29.7 132.9 28.8 134.7 28.9 136.7C28.9 138.2 29.7 139.6 30.9 140.5C32.2 141.7 35.3 142.8 40.2 143.8C52.3 146.4 60.9 149 66.2 151.7C71.5 154.4 75.3 157.7 77.6 161.6C80 165.6 81.2 170.2 81.2 174.8C81.2 180.4 79.5 185.9 76.4 190.6C73.1 195.5 68.5 199.3 63.1 201.6C57.4 204.1 50.2 205.4 41.6 205.4C26.4 205.4 15.9 202.5 10 196.6C4.1 190.6 0.8 183.2 0 174.2H0Z" fill="#E6E6E6"/>
<path d="M133 167.2L157.2 174.5C155.9 180.6 153.2 186.4 149.5 191.5C146.1 196 141.6 199.5 136.5 201.8C131.3 204.1 124.7 205.3 116.7 205.3C107 205.3 99 203.9 92.9 201.1C86.7 198.3 81.4 193.3 76.9 186.2C72.4 179.1 70.2 170 70.2 158.9C70.2 144.1 74.1 132.7 82 124.8C89.9 116.9 101 112.9 115.4 112.9C126.7 112.9 135.5 115.2 142 119.7C148.4 124.3 153.2 131.3 156.4 140.7L132 146.1C131.4 144 130.5 141.9 129.3 140.1C127.8 138 125.9 136.4 123.6 135.2C121.3 134 118.7 133.5 116.1 133.5C109.8 133.5 105 136 101.7 141.1C99.2 144.8 97.9 150.7 97.9 158.7C97.9 168.6 99.4 175.4 102.4 179.1C105.4 182.8 109.6 184.6 115.1 184.6C120.4 184.6 124.4 183.1 127.1 180.2C129.8 177.1 131.8 172.8 133 167.2ZM189.5 114.4H217.1V145.7H247.3V114.4H275.1V203.8H247.3V167.6H217.1V203.8H189.5V114.4V114.4Z" fill="#E6E6E6"/>
<path d="M271.3 159.1C271.3 144.5 275.4 133.1 283.5 125C291.6 116.9 303 112.8 317.5 112.8C332.4 112.8 343.8 116.8 351.9 124.8C360 132.8 364 144 364 158.4C364 168.9 362.2 177.4 358.7 184.1C355.3 190.7 350 196.1 343.5 199.7C336.8 203.4 328.5 205.3 318.6 205.3C308.5 205.3 300.2 203.7 293.6 200.5C286.8 197.1 281.2 191.8 277.5 185.3C273.4 178.3 271.3 169.6 271.3 159.1ZM298.9 159.2C298.9 168.2 300.6 174.7 303.9 178.7C307.2 182.6 311.8 184.6 317.6 184.6C323.5 184.6 328.1 182.7 331.4 178.8C334.7 174.9 336.3 168 336.3 158C336.3 149.6 334.6 143.4 331.2 139.6C327.8 135.7 323.2 133.8 317.4 133.8C312.3 133.6 307.4 135.8 304 139.7C300.6 143.6 298.9 150.1 298.9 159.2V159.2ZM392.3 159.1C392.3 144.5 396.4 133.1 404.5 125C412.6 116.9 424 112.8 438.5 112.8C453.4 112.8 464.9 116.8 472.9 124.8C480.9 132.8 485 144 485 158.4C485 168.9 483.2 177.4 479.7 184.1C476.3 190.7 471 196.1 464.5 199.7C457.8 203.4 449.5 205.3 439.6 205.3C429.5 205.3 421.2 203.7 414.6 200.5C407.8 197.1 402.2 191.8 398.5 185.3C394.4 178.3 392.3 169.6 392.3 159.1V159.1ZM419.9 159.2C419.9 168.2 421.6 174.7 424.9 178.7C428.2 182.6 432.8 184.6 438.6 184.6C444.5 184.6 449.1 182.7 452.4 178.8C455.7 174.9 457.3 168 457.3 158C457.3 149.6 455.6 143.4 452.2 139.6C448.8 135.7 444.2 133.8 438.4 133.8C433.3 133.6 428.3 135.8 425 139.7C421.6 143.6 419.9 150.1 419.9 159.2V159.2Z" fill="#E6E6E6"/>
<path d="M482.1 114.4H509.7V181.8H552.8V203.8H482V114.4H482.1Z" fill="#E6E6E6"/>
<path d="M456.679 101.241C484.466 80.3007 493.035 44.804 475.817 21.9567C458.6 -0.890662 422.117 -2.43687 394.329 18.5031C366.542 39.4431 357.973 74.9398 375.191 97.7871C392.408 120.634 428.891 122.181 456.679 101.241Z" fill="#E6E6E6"/>
<path d="M457.354 100.909C485.141 79.969 493.71 44.4723 476.492 21.625C459.275 -1.22239 422.792 -2.7686 395.004 18.1714C367.217 39.1114 358.648 74.6081 375.866 97.4554C393.083 120.303 429.567 121.849 457.354 100.909Z" stroke="#898989" stroke-width="4" stroke-miterlimit="10"/>
<path d="M398.075 52.9683L408.075 45.9683L420.375 63.4683C422.475 66.2683 424.075 69.2683 425.275 72.5683C425.975 75.0683 425.775 77.7683 424.775 80.1683C423.475 83.1683 421.375 85.6683 418.575 87.4683C415.275 89.7683 412.475 91.0683 410.075 91.4683C407.775 91.8683 405.375 91.4683 403.175 90.4683C400.775 89.2683 398.675 87.5683 397.075 85.3683L405.675 77.3683C406.375 78.4683 407.275 79.4683 408.275 80.2683C408.975 80.7683 409.775 81.0683 410.675 81.0683C411.375 81.0683 412.075 80.7683 412.575 80.3683C413.575 79.7683 414.275 78.5683 414.175 77.3683C413.875 75.6683 413.175 73.9683 412.075 72.6683L398.075 52.9683V52.9683ZM428.075 64.0683L437.175 56.8683C438.175 58.0683 439.475 58.9683 440.875 59.4683C442.875 60.0683 444.975 59.6683 446.675 58.3683C447.875 57.5683 448.875 56.4683 449.275 55.0683C449.875 53.2683 448.875 51.2683 447.075 50.6683C446.775 50.5683 446.475 50.4683 446.175 50.4683C444.975 50.3683 442.875 50.8683 439.775 52.1683C434.675 54.2683 430.675 55.0683 427.675 54.7683C424.775 54.4683 422.075 52.9683 420.475 50.4683C419.275 48.7683 418.675 46.7683 418.575 44.7683C418.575 42.4683 419.175 40.1683 420.475 38.2683C422.375 35.5683 424.675 33.2683 427.475 31.4683C431.675 28.5683 435.375 27.1683 438.575 27.1683C441.775 27.1683 444.775 28.6683 447.575 31.7683L438.575 38.8683C436.775 36.5683 433.375 36.0683 431.075 37.8683L430.775 38.1683C429.775 38.7683 429.075 39.6683 428.675 40.7683C428.375 41.5683 428.575 42.4683 429.075 43.1683C429.475 43.6683 430.075 44.0683 430.775 44.0683C431.575 44.1683 432.975 43.7683 434.975 42.8683C439.975 40.7683 443.775 39.5683 446.375 39.1683C448.575 38.7683 450.875 38.9683 452.975 39.8683C454.875 40.6683 456.475 42.0683 457.575 43.7683C458.975 45.7683 459.775 48.1683 459.875 50.6683C459.975 53.2683 459.275 55.7683 457.875 57.9683C456.075 60.6683 453.775 62.9683 451.075 64.7683C445.575 68.5683 441.075 70.1683 437.475 69.5683C433.575 68.9683 430.375 66.9683 428.075 64.0683V64.0683Z" fill="#898989"/>
</g>
<defs>
<clipPath id="clip0_1_2">
<rect width="552.8" height="205.3" fill="white"/>
</clipPath>
</defs>
</svg>
